<svg xmlns="http://www.w3.org/2000/svg" viewBox="0 0 180 180" role="img" aria-labelledby="title desc">
  <title id="title">hushpair mark</title>
  <desc id="desc">Two abstract people in navy and teal.</desc>

  <circle cx="54" cy="32" r="14" fill="#0B132B"/>
  <path d="M22 88C22 59 36 42 57 42C78 42 92 59 92 88V149H22V88Z" fill="#0B132B"/>

  <circle cx="121" cy="32" r="14" fill="#4DA6A6"/>
  <path d="M89 88C89 59 103 42 124 42C145 42 159 59 159 88V149H89V88Z" fill="#4DA6A6"/>

  <path d="M83 58C99 65 113 83 113 108C113 124 107 138 97 149H83C73 138 67 124 67 108C67 83 67 65 83 58Z" fill="#081127" fill-opacity="0.82"/>
</svg>
