<svg xmlns="http://www.w3.org/2000/svg" viewBox="0 0 920 180" role="img" aria-labelledby="title desc">
  <title id="title">hushpair logo</title>
  <desc id="desc">Two abstract people in navy and teal beside the word hushpair.</desc>
  <defs>
    <style>
      .wordmark {
        font-family: "Iowan Old Style", "Baskerville", "Libre Baskerville", Georgia, serif;
        font-size: 124px;
        fill: #0B132B;
        letter-spacing: -0.03em;
      }
    </style>
  </defs>

  <circle cx="54" cy="28" r="14" fill="#0B132B"/>
  <path d="M22 84C22 55 36 38 57 38C78 38 92 55 92 84V145H22V84Z" fill="#0B132B"/>

  <circle cx="121" cy="28" r="14" fill="#4DA6A6"/>
  <path d="M89 84C89 55 103 38 124 38C145 38 159 55 159 84V145H89V84Z" fill="#4DA6A6"/>

  <path d="M83 54C99 61 113 79 113 104C113 120 107 134 97 145H83C73 134 67 120 67 104C67 79 67 61 83 54Z" fill="#081127" fill-opacity="0.82"/>

  <text x="205" y="134" class="wordmark">hushpair</text>
</svg>
